<?xml version="1.0" encoding="utf-8"?>
<!-- Generator: Adobe Illustrator 21.1.0, SVG Export Plug-In . SVG Version: 6.00 Build 0)  -->
<svg version="1.1" id="Calque_1" xmlns="http://www.w3.org/2000/svg" xmlns:xlink="http://www.w3.org/1999/xlink" x="0px" y="0px"
	 viewBox="0 0 432 432" style="enable-background:new 0 0 432 432;" xml:space="preserve">
<style type="text/css">
	.st0{fill:#C1696B;}
	.st1{fill:#746458;}
	.st2{fill:#C69C6C;}
	.st3{fill:#1B1B1B;}
	.st4{fill:#8F7A6C;}
	.st5{fill:#F7B298;}
	.st6{fill:#AFD4D8;}
	.st7{fill:#FACE89;}
	.st8{fill:#544842;}
	.st9{fill:#609E67;}
	.st10{fill:#CDCCCC;}
	.st11{fill:#020203;}
	.st12{fill:#B4B4B4;}
	.st13{fill:#D95168;}
	.st14{fill:#B29F91;}
	.st15{fill:#343434;}
	.st16{fill:#EA5054;}
	.st17{fill:#F28F3F;}
	.st18{fill:#E3C64C;}
	.st19{fill:#9B5A60;}
	.st20{fill:#A7B7BE;}
	.st21{fill:#DEA8AD;}
	.st22{fill:#7D9982;}
	.st23{fill:#B29D97;}
	.st24{fill:#658762;}
	.st25{fill:#A45B4C;}
	.st26{fill:#C5766F;}
	.st27{fill:#A1A499;}
	.st28{fill:#E5986E;}
	.st29{fill:#759698;}
	.st30{fill:#A35A53;}
	.st31{fill:#A78A6A;}
	.st32{fill:#E6CAA9;}
	.st33{fill:#522B48;}
	.st34{fill:#D0B7BE;}
	.st35{fill:#A0B478;}
	.st36{fill:#576555;}
	.st37{fill:#C3CA8D;}
	.st38{fill:#AB363F;}
	.st39{fill:#7E8D66;}
	.st40{fill:#D7A2AE;}
	.st41{fill:#C1292E;}
	.st42{fill:#7D515F;}
	.st43{fill:#C4B37F;}
	.st44{fill:#ACB0C2;}
	.st45{fill:#82697E;}
	.st46{fill:#DBB57B;}
	.st47{fill:#878DA9;}
	.st48{fill:#4E2B2D;}
	.st49{fill:#9C656A;}
	.st50{fill:#A67D52;}
	.st51{fill:#919D83;}
	.st52{fill:#59899B;}
	.st53{fill:#CE9E8A;}
	.st54{fill:#4D695A;}
	.st55{fill:#C18832;}
	.st56{fill:#CBBBB2;}
	.st57{fill:#57777E;}
	.st58{fill:#B2C7CC;}
	.st59{fill:#C1444D;}
	.st60{fill:#998067;}
	.st61{fill:#AA848F;}
	.st62{fill:#C1944E;}
	.st63{fill:#B78686;}
	.st64{fill:#3D3F5C;}
	.st65{fill:#486C59;}
	.st66{fill:#D2B461;}
</style>
<g>
	<g>
		<path class="st14" d="M145,207.6c0.1-0.3,0.2-0.6,0.4-0.9c0.8-1.7,1.5-3.4,2.4-5.1c0.5-0.9,1.2-1.8,2.1-2.6
			c3.2-2.9,7.7-1.8,9.5,2.1c0.8,1.7,1,3.4,1.2,5.2c0.2,2.3,0.3,4.7,0.5,7c0.2,2.9,0.2,5.9,0.5,8.8c0.1,1.3,0.5,2.7,0.7,4
			c0.1,0.3,0.2,0.5,0.4,1c0.2-0.6,0.3-0.9,0.4-1.3c0.7-3.7,1.5-7.4,2.2-11.1c0.1-0.3,0.1-0.7,0.2-1c0.1-0.5,0-0.9-0.2-1.4
			c-2-3.9-2.2-8-1.1-12.2c0.2-0.9,0.6-1.8,1.1-2.7c2.5-4.9,8-6.9,13.1-4.8c0.5,0.2,1,0.5,1.4,0.7c0.8-0.4,1.5-0.9,2.3-1.2
			c0.5-0.2,1-0.2,1.5-0.2c1.5,0.1,2.4,1,2.4,2.6c0,1.1-0.1,2.1-0.3,3.2c-0.4,3.8-0.8,7.5-0.6,11.3c0.2,2.4,0.6,4.9,0.9,7.3
			c0.1,0.4,0.2,0.8,0.5,1.5c0.4-0.6,0.6-0.9,0.8-1.3c1.7-3.3,2.9-6.8,3.7-10.5c0.2-0.7,0.1-1.5,0.3-2.2c0.3-1.4,1.3-2.2,2.8-2.3
			c1.6-0.1,2.6,0.6,3,2c0.3,1,0.3,2,0.5,3.1c0.2-0.4,0.4-0.7,0.6-1c0.8-1.3,1.7-2.6,2.9-3.6c1.3-1.1,2.7-1.8,4.5-1.9
			c2.1-0.1,3.8,0.8,5,2.5c1,1.5,1.5,3.2,1.8,4.9c0.1,0.5,0.2,1.1,0.3,1.8c0.3-0.3,0.5-0.5,0.6-0.7c1.6-2.4,2.6-5.1,3.2-7.9
			c0.1-0.5,0.1-0.9,0.1-1.4c0.1-1.6,1-2.5,2.7-2.8c1.5-0.2,2.9,0.5,3.4,1.9c0.3,0.9,0.4,1.9,0.5,2.9c0.1,0.9,0.2,1.8,0.3,2.9
			c0.3-0.5,0.4-0.7,0.6-1c0.8-1.7,1.8-3.2,3-4.6c0.9-1.1,2-1.9,3.4-2.4c2.8-1,5.4-0.2,7.1,2.2c1.1,1.6,1.7,3.3,2,5.2
			c0.4,2.4,0.3,4.9,0.2,7.4c0,0.2,0,0.4-0.1,0.9c0.6-0.2,1.1-0.4,1.6-0.7c0-0.4,0-0.8-0.1-1.2c-0.2-3,0-5.9,0.8-8.9
			c0.4-1.4,0.9-2.8,1.8-4c1.5-2.1,4.1-3.1,6.5-2.6c3.1,0.8,5.1,4,4.4,7.2c-0.5,2.2-1.6,4-3.1,5.6c-1,1-2,1.8-3.1,2.6
			c-0.3,0.3-0.6,0.5-0.6,1c0.4,2.9,1,5.7,2.4,8.3c0.1,0.2,0.3,0.4,0.4,0.6c0.1,0.1,0.2,0.2,0.4,0.3c0.4-0.6,0.9-1.2,1.2-1.8
			c0.9-1.8,1.8-3.7,2.6-5.6c0.7-1.6,1.4-3.2,2.1-4.9c0.2-0.5,0.3-1.1,0.3-1.7c0.1-2.1,0.1-4.3,0.3-6.4c0.1-0.7,0.4-1.5,0.7-2.2
			c0.4-0.8,1-1.3,1.9-1.6c1.7-0.5,2.8,0.1,3.2,1.8c0.1,0.5,0.2,1,0.2,1.5c0.1,0.5,0.1,0.9,0.2,1.6c0.3-0.4,0.5-0.6,0.6-0.8
			c0.8-1.2,1.7-2.2,2.8-3.1c1.3-1,2.8-1.5,4.4-1.3c1.9,0.2,3.3,1.3,3.8,3.2c0.3,1,0.5,2.1,0.5,3.1c0.1,4.2,0,8.4,0,12.6
			c0,2,0,4,0,6.1c0,0.4,0.1,0.8,0.3,1.2c0.1-0.2,0.2-0.4,0.3-0.6c1.5-4.2,2.9-8.4,4.4-12.6c0.2-0.5,0.1-1-0.1-1.5
			c-0.9-2-1.6-4.1-1.9-6.3c-0.1-1-0.2-2.1-0.1-3.1c0.4-4.1,4.6-7.1,8.5-6.1c2.4,0.7,3.7,2.6,3.3,5.1c-0.4,2.5-1.6,4.7-3.1,6.7
			c-0.5,0.6-0.6,1.1-0.2,1.8c1,1.8,1.9,3.6,2.9,5.5c0.4-0.3,0.8-0.5,1.1-0.7c1.2-0.8,2.5-1.3,4-1.5c2-0.2,3.9,0.7,4.9,2.4
			c0.5,0.9,0.5,1.7,0,2.3c-0.6,0.7-1.7,0.9-2.5,0.4c-0.6-0.3-1.1-0.8-1.5-1.2c-0.8-0.7-1.2-0.8-2.1-0.3c-0.8,0.4-1.6,1-2.4,1.5
			c0.4,0.9,0.7,1.6,1,2.3c1.1,2.6,2,5.3,2.2,8.2c0.1,1.4,0,2.9-0.5,4.2c-0.9,2.5-2.6,4.1-5.2,4.7c-2.4,0.6-4.3-0.4-5.3-2.6
			c-1-2.2-1.1-4.5-0.8-6.8c0.3-2.3,1.1-4.5,2.2-6.6c0.3-0.5,0.3-1,0-1.5c-0.6-1.1-1.2-2.3-1.9-3.6c-0.2,0.6-0.4,1-0.5,1.3
			c-1,3.3-1.9,6.6-3.3,9.7c-0.3,0.7-0.6,1.4-1,1.9c-0.4,0.6-0.9,1.1-1.5,1.5c-1.4,0.9-2.9,0.8-4-0.5c-0.6-0.7-1.2-1.5-1.6-2.4
			c-1.1-2.2-1.6-4.7-1.7-7.1c-0.1-2.3-0.1-4.5-0.2-6.8c0-2.4-0.1-4.8-0.1-7.3c0-0.4-0.1-0.9-0.2-1.4c-0.6,0.1-0.8,0.5-1,0.9
			c-1.1,1.5-1.7,3.2-2.2,4.9c-0.8,2.5-1.1,5.2-1.2,7.8c0,1.5,0.2,3,0.3,4.5c0,0.7,0.1,1.3,0.1,2c0,1.2-1,2.2-2.3,2.4
			c-1.5,0.3-2.5-0.1-3-1.4c-0.8-2-1.5-4-1.7-6.1c0-0.2-0.1-0.4-0.3-0.6c-0.1,0.3-0.3,0.6-0.4,1c-0.8,1.8-1.6,3.5-2.7,5
			c-0.5,0.6-1,1.3-1.7,1.8c-2.5,2-5.6,1.8-7.8-0.7c-1.2-1.3-2-2.9-2.6-4.6c-0.4-1.1-0.6-2.3-0.9-3.4c-0.1-0.2-0.1-0.5-0.2-0.8
			c-0.7,0.3-1.4,0.5-2.1,0.9c-0.3,0.2-0.5,0.5-0.6,0.8c-0.6,1.5-1.1,3.1-1.8,4.6c-0.7,1.5-1.6,2.8-2.8,3.9c-0.5,0.5-1.1,0.9-1.6,1.3
			c-2.2,1.4-4.4,1.7-6.9,0.3c0.1,0.8,0.2,1.4,0.3,2.1c0.3,2.2,0.6,4.4,0.9,6.7c0.2,1.2-0.2,2.3-1.3,2.9c-1.2,0.7-2.4,0.9-3.7,0.3
			c-0.6-0.3-1-0.9-1.1-1.6c-0.5-2.1-1-4.1-1.3-6.2c-1.1-6.8-1.7-13.6-2.3-20.5c0-0.6-0.1-1.1-0.2-1.9c-0.3,0.4-0.5,0.7-0.6,1
			c-0.9,1.6-2,3.1-3.3,4.4c-0.4,0.4-0.6,0.8-0.7,1.3c-0.5,3.8-2,7-4.5,9.9c-0.3,0.4-0.7,0.8-1.1,1.1c-2.2,2-4.6,3-7.6,1.7
			c-0.1,1.1,0.1,2.2,0.2,3.2c0.4,2.5,0.8,4.9,1.2,7.4c0.2,1.2,0,2.1-1,2.8c-1.1,0.7-2.3,0.9-3.6,0.3c-0.6-0.3-0.9-0.8-1-1.4
			c-1-2.8-1.8-5.6-2.3-8.5c-0.7-4.2-1.1-8.5-1.4-12.8c0-0.5-0.1-0.9-0.3-1.4c-0.2,0.4-0.3,0.7-0.5,1.1c-0.5,0.8-0.8,1.6-1.4,2.2
			c-1.8,2.2-4.8,2.3-6.9,0.3c-1.7-1.7-2.6-3.9-3.2-6.2c-0.2-0.8-0.3-1.6-0.5-2.6c-0.2,0.4-0.4,0.7-0.5,1c-0.5,1-1,2-1.6,2.9
			c-1.7,2.6-4.4,3.2-7.1,1.6c-0.4-0.2-0.8-0.5-1.3-0.9c-0.2,1-0.3,2-0.5,2.9c-0.4,2.6-0.9,5.2-1.3,7.8c-0.1,0.8-0.4,1.5-0.7,2.2
			c-1,2.3-3.5,3-5.4,1.5c-0.8-0.6-1.5-1.5-2.1-2.4c-1.6-2.6-2.5-5.5-3.1-8.4c-0.6-3.1-0.5-6.3-0.7-9.4c-0.2-2.4-0.5-4.9-0.8-7.3
			c-0.1-0.5-0.3-1-0.5-1.6c-0.9,0.6-1.4,1.4-1.9,2.2c-1.4,2.2-2.2,4.7-2.9,7.2c-0.8,3.2-1.2,6.4-1.1,9.7c0,0.6,0,1.1,0,1.7
			c0,0.9-0.5,1.5-1.3,1.9c-1.3,0.6-2.8,0.2-3.7-1c-1.1-1.5-1.8-3.2-2.3-4.9c-0.7-2.4-1-4.8-1.3-7.3c-0.7-7.3-0.4-14.6,0-21.9
			c0-0.8,0.2-1.7,0.4-2.5c0.2-0.6,0.5-1.3,0.8-1.8c0.7-0.9,1.7-1.2,2.8-1.1c1.1,0.2,1.9,0.9,2.1,2c0.2,1.2,0.3,2.4,0.3,3.6
			c0,4.1-0.1,8.2-0.1,12.3c0,1.8,0,3.5,0.1,5.3c0,0.2,0.1,0.5,0.1,0.7C144.9,207.5,144.9,207.5,145,207.6z M172.8,214.5
			c0.6-1,1.1-1.7,1.5-2.5c1.3-2.6,2.6-5.3,3.9-7.9c0.1-0.3,0.3-0.5,0.3-0.8c0.2-2,0.4-4.1,0.7-6.1c0.1-0.5-0.1-0.9-0.6-1
			c-0.9-0.3-1.7-0.6-2.6-0.8c-1.5-0.3-2.6,0.2-3.5,1.5c-0.9,1.3-1.6,2.7-1.9,4.3c-0.8,4-0.2,7.8,1.2,11.5
			C172,213.2,172.3,213.7,172.8,214.5z M224.6,219.1c0.1,0,0.2,0,0.3,0.1c1.5-1.7,3.4-2.9,5.5-3.7c0.7-0.3,1.4-0.6,2.1-0.8
			c0.5-0.2,0.7-0.4,0.8-0.9c0.3-2.5,0.5-5,0.3-7.6c-0.1-1.6-0.3-3.3-1-4.8c-0.2-0.6-0.6-1.1-0.9-1.6c-1,0.3-1.5,1-2,1.6
			c-1.2,1.5-2.1,3.2-2.8,5c-1.3,3.5-1.9,7.1-2.2,10.7C224.5,217.7,224.6,218.4,224.6,219.1z M204.7,204.6c-3,1.8-5.4,9.1-5.5,14.7
			c0.9-0.5,1.7-1.1,2.5-1.6c1.3-0.8,2.7-1.5,4.1-2.2c0.6-0.3,0.8-0.7,0.8-1.3c0-2.1-0.1-4.2-0.5-6.2
			C205.8,206.8,205.5,205.6,204.7,204.6z M247.5,207.3c0.9-0.5,1.5-1.2,2.1-2c0.9-1.3,1.4-2.7,1.4-4.2c0-1.5-0.7-2.4-2.3-3
			C247.3,201,247.5,204.1,247.5,207.3z M205.9,218.1c-1.4,0.9-2.7,1.6-3.9,2.5c-0.5,0.3-0.9,0.8-1.2,1.3c-0.5,0.6-0.5,1.4-0.2,2.1
			c0.4,1,1.3,1.3,2.2,0.6c0.2-0.2,0.4-0.3,0.6-0.5c1.4-1.6,2.2-3.4,2.7-5.4C206,218.5,206,218.4,205.9,218.1z M232.4,217.7
			c-1.9,0.9-3.6,1.6-4.7,3.3c-0.2,0.4-0.3,0.9-0.3,1.4c0,0.7,0.4,1.3,1.1,1.5c0.6,0.2,1-0.3,1.4-0.7
			C231.2,221.6,231.9,219.8,232.4,217.7z M287,221.6c-1.3,2.5-0.9,7.1,0.7,8.4C288.7,228.7,288.3,224.5,287,221.6z M285.9,195.5
			c-1.1,1-1.3,3.3-0.6,5.2C286.6,198.9,286.8,196.5,285.9,195.5z"/>
		<path class="st14" d="M257.8,327.1c1.5-0.9,2.8-1.8,4.2-2.6c-0.2-0.6-0.4-1-0.5-1.5c-0.9-2.5-1.6-5-1.8-7.6
			c-0.2-3.6,0.5-6.9,2.4-9.9c1.6-2.4,3.7-4.1,6.7-4.6c3.8-0.5,7.2,1.9,7.9,5.7c0.5,2.5,0.2,4.9-0.8,7.2c-1.3,3.1-3.3,5.6-5.6,7.9
			c-0.5,0.5-1,0.9-1.5,1.4c2,4.2,4.1,8.4,6.2,12.6c2-1.4,3.5-3.2,4.5-5.4c0.9-2,1.4-4,1.3-6.2c0-1.2-0.4-2.3-1-3.3
			c-0.4-0.6-0.7-1.1-1.1-1.7c-0.4-0.7-0.3-1.2,0.3-1.6c0.8-0.5,1.6-0.5,2.4,0.2c1.8,1.5,3,3.5,3.2,5.9c0.2,2.3-0.4,4.4-1.3,6.5
			c-1.2,2.9-3.2,5.2-5.6,7.2c-0.6,0.5-1.1,0.9-1.8,1.4c0.2,0.6,0.4,1.3,0.6,1.9c1,3.4,1.6,6.8,1.4,10.3c-0.1,2.4-0.7,4.6-2,6.6
			c-1.3,2-3.1,3.4-5.4,4.1c-2.5,0.8-4.8,0.3-6.6-1.7c-1.5-1.6-2.5-3.5-2.9-5.6c-0.3-1.6-0.1-3.1,0.5-4.6c1.1-2.7,2.7-5,4.7-7
			c0.9-0.9,1.9-1.8,2.9-2.7c-0.4-1.5-4.8-11-6-12.8c-1.7,1-3.4,2.1-5.1,3.1c-0.2,1.7-0.3,3.3-0.5,4.9c-0.4,2.7-1.2,5.3-2.4,7.7
			c-1.2,2.3-2.7,4.4-4.9,5.9c-0.9,0.6-1.8,1.1-2.8,1.5c-2,0.7-3.9,0.4-5.6-0.9c-0.2-0.1-0.4-0.3-0.7-0.5c0,0.5,0,0.8,0.1,1.1
			c0.2,3.4,1.2,6.6,1.9,9.8c0.3,1.4-0.2,2.5-1.5,3.2c-1.2,0.6-2.3,0.4-3-0.8c-1.6-2.6-2.8-5.3-3.6-8.2c-1.1-4.1-1.9-8.3-2.6-12.5
			c-0.3-1.7-0.6-3.4-1-5.1c-0.1,0.3-0.2,0.5-0.3,0.8c-0.7,2.4-1.4,4.8-2.2,7.1c-0.8,2.1-1.9,4.1-3.5,5.7c-1.3,1.3-2.9,2-4.8,1.9
			c-1.2-0.1-2.3-0.5-3.3-1.2c-1.3-0.9-2.3-2-3.2-3.3c-1.7-2.3-2.9-4.9-3.7-7.6c-0.1-0.5-0.3-0.9-0.5-1.6c-0.2,0.8-0.4,1.3-0.6,1.8
			c-0.7,1.9-1.3,3.8-2,5.6c-0.7,1.8-1.8,3.3-3.2,4.5c-2.2,2-4.7,2.3-7.5,1.2c-2.5-1.1-4.5-2.8-6.1-4.9c-0.2-0.3-0.5-0.6-0.9-1.1
			c-0.2,1.2-0.4,2.2-0.6,3.2c-0.2,1.1-0.5,2.1-0.9,3.2c-0.2,0.7-0.6,1.3-1.1,1.9c-1.1,1.4-2.6,1.7-4.3,1.1c-1.1-0.4-1.9-1.2-2.7-2
			c-1.5-1.6-2.5-3.5-3.3-5.6c-1.6-4.2-2.4-8.6-2.6-13.1c-0.1-2.8-0.1-5.6-0.3-8.4c-0.1-1.6-0.3-3.3-0.4-4.9c0-0.4-0.3-0.9-0.4-1.4
			c-0.8,0.3-1.1,0.9-1.5,1.4c-1.4,2-2.1,4.2-2.7,6.5c-1.2,4.6-1.3,9.2-0.8,13.9c0.3,2.3,0.7,4.6,1.1,7c0.2,1.2-0.3,2.2-1.5,2.9
			c-1.2,0.7-2.4,0.6-3.3-0.2c-0.3-0.3-0.6-0.7-0.9-1.1c-1.5-2.1-2.6-4.4-3.4-6.8c-2.4-6.9-4.2-14-5.3-21.2c-0.1-0.4-0.1-0.7-0.2-1.1
			c0-0.1-0.1-0.1-0.2-0.3c-1,0.9-1.7,2-2.2,3.2c-0.2,0.3-0.4,0.7-0.7,0.9c-0.7,0.4-1.4,0-1.3-0.8c0.1-0.7,0.3-1.5,0.6-2.2
			c0.7-1.4,1.7-2.7,2.8-3.8c0.4-0.4,0.6-0.9,0.5-1.5c-0.3-3.1-0.3-6.2,0-9.4c0.2-2.3,0.7-4.6,1.5-6.7c0.9-2.2,2.1-4.1,4.1-5.5
			c3-2.2,6.2-2.7,9.6-1c2.4,1.2,3.6,3.1,3.9,5.7c0.4,2.9-0.5,5.4-2.3,7.6c-1.1,1.3-2.3,2.5-3.6,3.5c-1.7,1.4-3.6,2.6-5.3,3.9
			c-0.4,0.3-0.8,0.5-1.1,0.8c-0.2,3.3,1.9,14,3.4,18.4c0.2-1.2,0.3-2.1,0.5-3.1c0.5-2.9,1.2-5.8,2.5-8.4c0.7-1.4,1.6-2.7,2.5-4
			c0.9-1.2,2.2-2.1,3.7-2.4c2.6-0.5,4.8,0.5,5.9,2.9c0.7,1.5,1,3.2,1.1,4.8c0.2,4.4,0.3,8.9,0.4,13.3c0.1,3.6,0.5,7.1,1.6,10.5
			c0.4,1.1,0.9,2.2,1.4,3.2c0.3,0.7,0.8,1.2,1.4,1.7c0.7-1.1,1-2.2,1.1-3.4c0.3-2.6,0.5-5.2,0.7-7.8c0-0.5-0.1-1.1-0.3-1.6
			c-1.7-5.4-2-10.8-1-16.3c0.4-2.2,1.2-4.3,2.5-6.2c1.3-1.8,2.9-3.2,5.2-3.6c2.2-0.5,4.2-0.1,6,1.2c5,3.7,5.5,10.6,1.3,14.9
			c-1.9,1.9-4.2,3.1-6.7,3.8c-0.5,0.1-1,0.3-1.6,0.5c0.1,0.6,0.2,1.2,0.3,1.7c0.9,3.8,2.1,7.4,4.5,10.5c0.8,1.1,1.7,2,3,2.5
			c0.9,0.4,1.2,0.4,2-0.4c0.9-0.9,1.6-2,2-3.1c0.8-2.4,1.6-4.8,2.4-7.2c0.7-2.1,1.3-4.3,1.9-6.4c0.1-0.4,0.2-0.9,0.1-1.3
			c-0.4-4.8-0.5-9.7,0.2-14.5c0.5-3.5,1.4-7,3.2-10.1c1-1.7,2.2-3.3,3.9-4.4c1.6-1.1,3.3-1.5,5.2-1.1c1.5,0.3,2.7,1.2,3.5,2.5
			c1.6,2.6,2,5.4,1.5,8.4c-1.1,7.3-4.6,13.2-10.5,17.7c-0.1,0.1-0.2,0.2-0.4,0.4c0.3,1.8,0.5,3.7,0.9,5.6c0.7,3.3,1.6,6.6,3,9.6
			c0.5,1,1,1.9,1.6,2.8c0.3,0.5,0.7,0.9,1.1,1.2c0.8,0.7,1,0.7,1.8-0.1c1-1.1,1.7-2.4,2.3-3.7c1.1-2.7,1.7-5.5,2.4-8.3
			c0.7-3.2,1.3-6.3,2-9.5c0.3-1.4,1.2-2.2,2.7-2.5c1.4-0.2,2.5,0.4,3.1,1.6c0.1,0.3,0.3,0.5,0.5,1c0.2-1.1,0.3-2,0.5-2.8
			c0.5-2.7,1.4-5.2,2.7-7.5c0.8-1.3,1.7-2.5,2.9-3.4c3.6-2.8,8.3-2.3,11.2,1.2c1,1.2,1.6,2.5,2.2,3.9c1,2.6,1.6,5.3,2,8
			C257.7,326.2,257.7,326.5,257.8,327.1z M251.4,330.7c0-0.2,0-0.4,0-0.5c-0.3-4.2-1.1-8.2-2.6-12.1c-0.3-0.9-0.9-1.7-1.4-2.4
			c-0.7-0.9-1.1-0.9-2-0.1c-1.1,0.9-1.8,2.1-2.5,3.3c-1.2,2.2-1.8,4.6-2.2,7.1c-0.8,4.5-0.8,9-0.5,13.5c0,0.1,0.1,0.2,0.2,0.4
			C243.1,335.6,247.3,333.3,251.4,330.7z M219.9,303.1c-1.9,2.3-2.9,4.9-3.7,7.6c-1.4,4.7-1.8,9.6-1.5,14.8c0.5-0.4,0.7-0.6,1-0.9
			c4.1-4.2,6.1-9.4,6.4-15.2c0.1-1.5-0.1-3-0.7-4.4C221.1,304.2,220.8,303.5,219.9,303.1z M160.4,311.8c0.1,0,0.2,0.1,0.3,0.1
			c2.5-1.7,5-3.5,6.9-5.9c1.1-1.3,1.6-2.9,1.7-4.6c0.1-1.4-0.1-2.8-1-4c-1.1-1.5-3.4-2.6-5.1-0.1c-0.4,0.6-0.7,1.2-0.9,1.9
			c-1,2.4-1.5,4.9-1.7,7.5C160.5,308.5,160.5,310.2,160.4,311.8z M191.7,330.9c1.6-0.2,3.8-1,4.9-1.7c1.5-1,2.6-2.3,2.9-4.1
			c0.4-2.9-0.5-5.4-2.5-7.5c-0.4-0.4-0.9-0.7-1.4-0.9c-0.6-0.3-1-0.1-1.4,0.5c-0.4,0.6-0.7,1.2-1,1.8
			C191.6,322.8,191.4,326.8,191.7,330.9z M267.3,319.8c0.1,0,0.2,0,0.3,0c2.7-2.8,4.7-6,5.3-10c0.2-1.5,0-3.1-0.8-4.5
			c-1-1.6-2.5-1.7-3.8-0.4c-1.1,1.1-1.7,2.6-2.1,4.1c-0.5,2.2-0.4,4.5,0.1,6.7C266.5,317.1,267,318.5,267.3,319.8z M270.4,343.3
			c-0.2,0.1-0.3,0.1-0.3,0.2c-2.1,1.8-3.8,4-4.7,6.7c-1,2.7,0.2,6.1,2.6,7.6c0.2,0.1,0.4,0.2,0.6,0.3c0.9,0.3,1.5,0.1,2-0.7
			c0.3-0.6,0.6-1.3,0.7-2.1c0.6-2.6,0.6-5.2,0.2-7.9C271.2,346.1,270.9,344.7,270.4,343.3z M251.5,334.6c-0.3,0-0.4,0-0.5,0.1
			c-2.1,1.3-4.2,2.7-6,4.5c-1.4,1.4-2,3.1-1.8,5.1c0.1,1.1,0.7,2,1.7,2.6c1.1,0.7,1.8,0.6,2.8-0.2c1-0.9,1.8-2.1,2.2-3.4
			c0.4-1.2,0.8-2.5,1-3.7C251.2,337.9,251.3,336.3,251.5,334.6z"/>
		<g>
			<path class="st1" d="M270,128.8c-0.6,8.1,0.4,16.1,0.9,24.2c0.2,0,0.4,0.1,0.6,0.1c5.4,0.2,10.7,0.2,16.1-0.1
				c1.9-0.1,3.7-0.1,5.6-0.1c2.2,0,3.7,1.5,4,3.7c0.2,1.6-0.1,3.2-0.6,4.7c-0.4,1.2-1.3,2-2.3,2.5c-1.2,0.6-2.5,0.9-3.8,1
				c-1.3,0.1-2.6,0.3-4,0.3c-4.6,0-9.1-0.2-13.7-0.2c-0.3,0-0.6,0-1,0c0.2,2.7,0.4,5.4,0.6,8.2c0.8-0.1,1.6-0.1,2.3-0.2
				c3.3-0.3,6.7-0.6,10-0.8c2.3-0.1,4.6-0.1,6.8,0c2.2,0.1,3.8,1.5,4.2,3.7c0.2,0.9,0.2,1.8,0.2,2.6c-0.1,1.6-0.9,2.8-2.4,3.6
				c-1.3,0.7-2.7,1-4.1,1.1c-1.4,0.1-2.9,0.2-4.3,0.2c-2.7,0-5.4,0-8,0.1c-3.2,0.1-6.4,0.4-9.6,0.5c-2,0.1-4,0.2-5.9,0.1
				c-1.9,0-3.4-1-4.4-2.7c-0.9-1.5-1.3-3.2-1.5-4.9c-0.3-3.7-0.8-7.3-0.8-11c-0.2-11.2-0.3-22.3,0.2-33.5c0.1-3.1,0.5-6.1,1-9.2
				c0.6-3.3,2.6-5.4,5.6-6.7c1.9-0.8,4-1.2,6.1-1.5c4.5-0.5,9.1-0.9,13.6-1.1c2.9-0.2,5.7,0.1,8.6,0.1c1.2,0,2.5,0.2,3.7,0.1
				c2.9-0.2,5.7,1.6,6.3,5.5c0.2,1.5,0.1,2.9-0.3,4.4c-0.4,1.8-1.6,3-3.3,3.6c-1.2,0.4-2.4,0.7-3.6,0.8c-1.7,0.2-3.4,0.2-5.2,0.3
				c-3.7,0.1-7.4,0.1-11.1,0.2c-1.7,0-3.4,0.2-5.2,0.3C270.7,128.7,270.4,128.7,270,128.8z"/>
			<path class="st1" d="M153.5,140c0.2,5,0.3,10.1,0.5,15.1c0.1,1.4,0.3,2.8,0.5,4.3c0.2,1.6,1.2,2.7,2.8,3c1.1,0.2,2.3,0.5,3.5,0.6
				c3.3,0.1,6.7,0,10,0.1c2.9,0,5.7,0,8.6,0.2c3,0.2,5,1.9,6.1,4.7c1,2.6,1.2,5.3,0.9,8c-0.1,1.5-1.1,2.5-2.4,3.1
				c-1.5,0.8-3,1.1-4.7,1.1c-2.4,0-4.8-0.2-7.2-0.3c-2.6-0.1-5.3-0.3-7.9-0.3c-4.4-0.1-8.7-0.2-13.1-0.3c-2.6-0.1-5.1-0.3-7.6-0.8
				c-3.6-0.8-5.7-3.1-6.3-6.7c-0.5-2.9-0.9-5.8-1.1-8.7c-0.3-5.2-0.5-10.5-0.7-15.7c-0.2-4.5-0.5-9.1-0.7-13.6c-0.1-3-0.1-6-0.2-9
				c0-2.2,0-4.3,0-6.5c0-2.2,1.2-3.5,3.1-4.2c3.6-1.2,7.2-1,10.7,0.2c2,0.7,3.2,2.3,3.9,4.2c0.7,1.8,1,3.7,1.1,5.6
				c0.1,2.2,0.2,4.3,0.2,6.5C153.5,133.6,153.5,136.8,153.5,140z"/>
			<path class="st1" d="M224.7,133.7c0.3,7.3,0.7,14.5,1,21.7c0.7,0,1.2,0,1.8,0c2.2,0.1,4.4,0.1,6.6,0.2c3.1,0.1,5.3,2.2,5.8,5.8
				c0.1,1.2,0.1,2.4,0,3.6c-0.4,3.3-2.3,5.3-5.6,5.9c-2.3,0.4-4.7,0.4-7,0.2c-0.3,0-0.5,0-0.9-0.1c0,0.4,0,0.8,0,1.1
				c0,1.8,0,3.6,0,5.4c0,0.7-0.1,1.4-0.2,2.1c-0.3,1.9-1.4,3.3-3.2,4c-2.4,1-4.8,1.2-7.3,0.7c-1.8-0.4-3-1.5-3.7-3.1
				c-0.7-1.8-1.1-3.7-1.2-5.6c-0.2-4.1-0.4-8.2-0.5-12.3c-0.1-6.8-0.3-13.5-0.8-20.3c-0.3-3.6-0.4-7.3-0.4-10.9
				c0-2.1,0.3-4.2,0.6-6.2c0.3-2,1.3-3.6,2.7-5.1c1-1,2.2-1.6,3.5-1.9c2.3-0.5,4.5-0.8,6.8-1.1c3.8-0.4,7.6-0.5,11.4-0.5
				c3.1,0,6.1,0.3,9.1,0.7c0.4,0.1,0.7,0.1,1.1,0.2c2.9,0.7,4.8,3,5,6c0.1,1.2-0.1,2.3-0.3,3.5c-0.4,2.3-1.9,3.6-4,4.4
				c-1.8,0.7-3.8,0.9-5.7,1c-4.6,0.2-9.2,0.3-13.9,0.5C225.1,133.7,225,133.7,224.7,133.7z"/>
			<path class="st1" d="M204.9,153.2c-0.1,7.9-0.2,15.8-0.2,23.7c0,3.4-1.8,5.4-5,5.8c-2,0.3-3.9,0-5.7-0.7c-1.4-0.6-2.3-1.5-3-2.8
				c-0.7-1.5-1.1-3-1.3-4.6c-0.4-3.4-0.8-6.7-0.9-10.1c-0.3-9-0.5-18.1-0.7-27.1c-0.1-4,0-8,0-12c0-1.1,0.2-2.1,0.4-3.2
				c0.7-3.3,3.1-5.4,6.5-5.5c1.3,0,2.6,0.2,3.9,0.5c2,0.5,3.3,1.9,4.2,3.8c0.8,1.6,1.1,3.3,1.3,5.1c0.2,2.5,0.4,4.9,0.4,7.4
				c0.1,3.8,0.1,7.6,0.1,11.3c0,2.8,0,5.6,0,8.4C205,153.2,204.9,153.2,204.9,153.2z"/>
		</g>
		<g>
			<path class="st15" d="M198.6,265.7c0.1,6.9-0.4,13.7-2.1,20.4c-0.7,2.7-1.6,5.3-3.3,7.7c-1,1.4-2.1,2.6-3.8,3.3
				c-3.2,1.3-6.1,0.7-8.6-1.5c-1.5-1.3-2.5-3-3.4-4.9c-1.4-3-2-6.3-2.6-9.5c-0.9-5.7-1.4-11.4-1.1-17.1c0.2-3.9,0.3-7.9,1.1-11.7
				c0.5-2.7,1.5-5.2,3.1-7.3c2.6-3.4,6.1-4.8,10.3-4.1c2.7,0.4,4.8,1.9,6.5,4c1.6,2,2.3,4.4,2.8,6.9c0.7,3.3,1,6.7,1,10.1
				C198.6,263.1,198.6,264.4,198.6,265.7z M189.7,291.6c0.8-1.3,1.3-2.6,1.7-4c1.1-3.9,1.6-7.8,1.8-11.8c0.3-5.4,0.1-10.8-0.5-16.2
				c-0.3-3-0.8-5.9-1.7-8.7c-0.5-1.6-1.2-3-2.3-4.2c-1.2-1.3-1.9-1.2-2.8,0.3c-0.5,1-0.9,2-1.1,3.1c-0.8,3.4-1,6.8-0.8,10.3
				c0.3,7.5,1,14.9,2.4,22.3c0.4,2.3,0.9,4.6,1.8,6.8C188.5,290.2,188.8,291,189.7,291.6z"/>
			<path class="st15" d="M164.6,281.4c0.6-1.2,0.8-2.4,1-3.6c0.3-1.5,0.6-3.1,0.8-4.7c0.1-1.3,1.9-2.2,3.3-1.6
				c0.6,0.3,0.8,0.7,0.8,1.3c-0.1,0.9-0.1,1.8-0.3,2.7c-0.4,2.2-0.8,4.4-1.3,6.6c-0.2,1-0.7,1.9-1.2,2.8c-1.6,2.8-4.8,4-7.9,3.2
				c-2.4-0.6-4.4-1.9-5.9-3.8c-1.8-2.3-3-4.9-3.9-7.6c-1.5-4.4-2.4-8.8-2.9-13.4c-0.4-3.3-0.6-6.6-0.4-9.9c0.2-3.5,0.8-6.9,2.2-10.1
				c0.5-1.2,1.2-2.5,2-3.5c3.1-4.1,8.6-5,12.9-2.1c3.9,2.7,6.1,6.5,6.3,11.3c0,0.5,0,1-0.1,1.4c-0.1,0.4-0.4,0.9-0.8,1.2
				c-0.8,0.6-1.7,0.2-2-0.7c-0.2-0.6-0.3-1.3-0.5-1.9c-0.9-2.9-2.4-5.4-4.9-7.3c-1.2-0.9-1.8-0.8-2.6,0.5c-0.6,1.1-1,2.2-1,3.5
				c-0.1,1.7-0.3,3.5-0.2,5.2c0.4,7.6,1.4,15.1,2.8,22.5c0.3,1.6,0.8,3.1,1.3,4.7c0.2,0.8,0.7,1.5,1.1,2.2
				C163.5,280.8,163.9,281.3,164.6,281.4z"/>
			<path class="st15" d="M277.4,241.2c-0.5,3.6-1.4,32.7-1.1,34.7c0.2,0.1,0.5,0.1,0.7,0.2c1.8,0.1,3.6,0.1,5.4,0.1
				c0.4,0,0.9,0,1.3,0.1c1,0.3,1.3,1.1,0.7,2c-0.5,0.8-1.3,1.2-2.2,1.3c-1.5,0.2-3.1,0.3-4.6,0.5c-0.4,0-0.9,0-1.5,0
				c0.1,3.2,0.3,6.2,0.4,9.4c0.9,0,1.8-0.1,2.6-0.1c0.7,0,1.3-0.1,2,0.1c1.3,0.3,1.6,1.4,0.7,2.4c-0.4,0.4-0.9,0.9-1.5,1.1
				c-3.2,1.1-6.4,1.7-9.7,0.9c-3-0.7-4.7-2.5-4.9-5.6c-0.2-2.9-0.3-5.8-0.3-8.7c0.1-8.1,0.3-16.2,0.6-24.3c0.1-3.3,0.5-6.5,0.8-9.8
				c0.1-1.2,0.5-2.4,0.9-3.5c1-2.8,3.1-4.5,6-4.6c4.2-0.2,8.4-0.3,12.6,0.4c0.7,0.1,1.5,0.4,2.2,0.8c0.9,0.5,0.9,1.4,0.1,2
				c-0.6,0.5-1.3,0.5-2.1,0.5c-2.6,0-5.2,0-7.8,0C278.3,241.1,277.8,241.2,277.4,241.2z"/>
			<path class="st15" d="M253,237.6c-0.2,2.3-0.4,4.6-0.5,6.9c-0.4,8.1-0.3,16.2-0.1,24.2c0.1,3.7,0.3,7.3,0.4,11
				c0,0.2,0,0.4,0.1,0.8c0.8,0,1.6,0,2.4,0c0.9,0,1.8,0,2.8,0c0.7,0,1.3,0.2,1.5,0.9c0.2,0.7,0,1.2-0.5,1.7c-0.6,0.7-1.4,1-2.3,1.1
				c-0.9,0.1-1.9,0.2-2.9,0.3c-0.2,0-0.5,0-0.9,0.1c0.1,2.4,0.3,4.7,0.4,7.1c0.6,0,1.2,0.1,1.7,0.1c0.7,0,1.4,0.1,2.1,0.2
				c0.4,0.1,0.8,0.2,1.1,0.4c1.2,0.8,1.3,1.8,0.3,2.8c-0.8,0.8-1.8,1.3-3,1.6c-2.6,0.5-5.3,0.4-7.9-0.3c-2.6-0.7-3.6-1.8-3.8-4.4
				c-0.2-1.9-0.3-3.7-0.4-5.6c-0.1-2-0.2-4-0.2-6.1c-0.1-5.4-0.2-10.8-0.3-16.2c-0.1-5.4-0.2-10.8-0.3-16.2c0-2.8,0.1-5.7,0.7-8.4
				c0.8-3.6,2.9-5.5,6.5-6.1c2.6-0.4,5.2-0.1,7.8,0.5c0.4,0.1,0.7,0.2,1,0.4c0.9,0.5,1,1.2,0.3,2c-0.7,0.7-1.6,0.9-2.5,1
				C255.4,237.4,254.3,237.5,253,237.6z"/>
			<path class="st15" d="M210.7,281.6c0.6-0.1,1.1-0.2,1.7-0.2c1.1,0,2.1,0,3.2,0c0.6,0,1.1,0.3,1.3,0.8c0.2,0.6,0,1.1-0.4,1.5
				c-0.4,0.4-0.8,0.7-1.3,0.9c-0.9,0.3-1.9,0.5-2.9,0.8c-0.4,0.1-0.8,0.1-1.3,0.2c0,1,0.1,1.9,0.1,2.9c0.1,2,0.2,4,0.3,6
				c0.1,1-0.3,1.8-1.2,2.4c-1.5,1-3.2,1.2-4.9,0.7c-1.3-0.4-2.1-1.4-2.2-2.9c-0.2-2.2-0.3-4.5-0.4-6.7c-0.3-5.1-0.7-10.3-1-15.4
				c-0.1-1.5-0.2-2.9-0.2-4.4c-0.1-4.9-0.3-9.8-0.3-14.6c0-1.6,0.3-3.2,0.6-4.8c0.8-3.7,3.2-5.8,7-6c2.3-0.2,4.6-0.1,6.9,0.4
				c0.6,0.1,1.2,0.3,1.8,0.6c1.1,0.6,1.2,1.7,0,2.2c-0.8,0.4-1.7,0.5-2.5,0.6c-0.9,0.1-1.9,0.2-2.9,0.2c-0.7,0-1,0.3-1.1,0.9
				c-0.2,0.9-0.4,1.7-0.5,2.6c-0.5,6.8-0.7,13.6-0.4,20.4c0.1,3.3,0.4,6.7,0.6,10C210.6,281.1,210.7,281.3,210.7,281.6z"/>
			<path class="st15" d="M230.5,285.1c0,0.9,0.1,1.7,0.1,2.5c0,1.6,0.1,3.2-0.1,4.7c-0.3,2.4-3,4.1-5.4,3.6
				c-1.1-0.2-1.7-0.9-1.9-1.9c-0.2-0.9-0.4-1.8-0.4-2.7c-0.2-3.7-0.5-7.4-0.7-11.1c-0.4-7-0.7-14-1.1-21c-0.1-2.7-0.2-5.4-0.3-8
				c0-1.5,0.2-3.1,0.7-4.6c0.9-2.6,2.7-4.1,5.3-4.6c2.7-0.5,5.3-0.4,8,0.2c0.6,0.1,1.1,0.3,1.6,0.6c0.9,0.6,1,1.5,0.1,2.1
				c-0.5,0.4-1.2,0.6-1.9,0.8c-0.9,0.2-1.8,0.2-2.6,0.3c-0.5,0-1,0.1-1.6,0.2c-0.5,11.6-0.3,23.2-0.1,34.8c1.3,0,2.4,0,3.5,0
				c0.6,0,1.1,0,1.7,0c0.7,0.1,1.4,0.3,1.6,1.1c0.2,0.8-0.2,1.4-0.8,1.8c-0.6,0.5-1.4,0.8-2.2,0.8
				C232.9,284.8,231.8,285,230.5,285.1z"/>
		</g>
	</g>
	<g>
		<g>
			<path class="st15" d="M226,111.8c-6.4,0.1-12.9,0.1-19.3,0.1c-4.7,0-9.4,0-14.1-0.1c-4.3-0.1-8.7-0.4-13-0.6
				c-6-0.3-12-0.4-17.9-0.7c-7.1-0.4-14.3-0.9-21.4-1.5c-2.7-0.2-5.4-0.8-8.2-1.3c-1.6-0.3-3.1-1-4.5-2c-1.2-0.9-1.9-2.1-1.9-3.6
				c0-3.2,0.3-6.5,1.1-9.6c0.8-3.3,2.9-5.2,6.3-5.7c1-0.1,2-0.2,3-0.4c0.5-0.1,0.9-0.2,1.4-0.3c1.2-0.4,1.8-1.3,1.8-2.5
				c0.1-1.7,0.1-3.5,0.2-5.2c0.2-2,0.4-4,0.9-6c0.8-3.3,3-5.5,6.4-6.3c2.6-0.6,5.2-1,7.8-1.3c4.7-0.6,9.5-1.2,14.2-1.7
				c3.9-0.4,7.8-0.7,11.6-1c11.9-0.7,23.7-0.8,35.6-0.6c7.1,0.1,14.2,0.2,21.3,0.5c5.9,0.2,11.8,0.6,17.7,1c3.5,0.2,7,0.4,10.4,0.7
				c6.3,0.5,12.7,1.1,18.9,2.2c0.9,0.2,1.7,0.4,2.5,0.7c3,1.2,4.7,3.5,5.2,6.7c0.4,2.8,0.7,5.6,0.7,8.4c0,0.3,0,0.7,0,1
				c0,1.6,0.4,2.1,2.1,2.2c2.2,0.2,4.4,0.8,6.6,1.4c2.9,0.7,4,3,4.6,5.6c0.3,1.4,0.4,2.8,0.4,4.3c0.1,1.9,0,3.9,0,5.8
				c0,1.7-0.8,3-2.2,3.9c-1.1,0.7-2.4,1.3-3.7,1.7c-2.2,0.8-4.6,1.1-6.9,1.3c-5,0.5-10.1,0.9-15.1,1.3c-2.5,0.2-5.1,0.2-7.6,0.3
				c-7.8,0.5-15.7,0.6-23.6,0.7C240.2,111.4,233.1,111.5,226,111.8C226,111.7,226,111.8,226,111.8z"/>
			<g>
				<path class="st8" d="M220.1,370.7c-8.2-0.2-16.4-0.6-24.5-1.6c-4.7-0.6-9.5-1.2-14.2-2c-2.2-0.4-4.4-1.1-6.6-1.7
					c-1.6-0.5-3.1-1.4-4.3-2.6c-2.2-2-4.2-4.1-6.1-6.4c-0.2-0.3-0.4-0.5-0.6-0.8c-0.4-0.8-0.2-1.8,0.4-2.4c0.7-0.6,1.7-0.6,2.4,0
					c0.3,0.2,0.6,0.6,0.8,0.9c1.7,1.8,3.4,3.6,5.1,5.4c1.1,1.2,2.6,1.9,4.1,2.4c2.8,0.9,5.8,1.5,8.7,1.9c5.4,0.7,10.7,1.4,16.1,1.9
					c3.9,0.4,7.9,0.6,11.9,0.7c4.1,0.1,8.3,0.3,12.5,0.1c5.2-0.2,10.4-0.5,15.6-0.9c3.9-0.3,7.7-0.8,11.6-1.4
					c2.8-0.4,5.5-1.1,8.2-1.6c0.4-0.1,0.9-0.2,1.3-0.2c1-0.1,1.8,0.5,2,1.4c0.3,0.9-0.2,1.8-1.1,2.3c-0.3,0.1-0.6,0.2-0.9,0.3
					c-6,1.4-12,2.4-18.1,3c-4.2,0.3-8.4,0.7-12.6,1C227.9,370.6,224,370.6,220.1,370.7z"/>
				<path class="st8" d="M283.8,268.3c0.3-2.4,0.5-4.8,0.8-7.2c0.4-3.7,0.8-7.4,1.2-11.2c0.1-0.7,0.1-1.4,0.2-2.1
					c0.2-1,0.8-1.7,1.7-1.8c1.1-0.2,2,0.5,2.2,1.6c0.1,0.3,0,0.7,0,1c-0.4,3.4-0.7,6.8-1.1,10.2c-0.3,3.1-0.7,6.3-1.1,9.4
					c0,0.3-0.1,0.7-0.2,1c-0.3,1-1.2,1.7-2.1,1.5c-1-0.1-1.6-0.9-1.7-2C283.8,268.6,283.8,268.4,283.8,268.3z"/>
				<path class="st8" d="M296.4,188.6c-0.3,5.1-0.6,10.1-1,15.1c0,0.4-0.1,0.7-0.2,1.1c-0.3,0.8-1.2,1.3-2,1.2
					c-0.9-0.1-1.6-0.8-1.7-1.8c0-1,0-1.9,0.1-2.9c0.2-3.2,0.4-6.4,0.6-9.6c0.1-1.5,0.2-3,0.3-4.5c0.2-1.5,1-2.3,2.2-2.1
					c1.1,0.1,1.9,1.1,1.7,2.5C296.4,188,296.4,188.4,296.4,188.6z"/>
				<path class="st8" d="M283.6,298.2c-0.4,4.5-0.7,9-1,13.4c0,0.5,0,1.1-0.1,1.6c-0.2,1.2-1,1.9-2.1,1.9c-1.1-0.1-1.9-1-1.8-2.2
					c0.1-2.4,0.3-4.8,0.5-7.3c0.2-2.5,0.4-4.9,0.6-7.4c0-0.4,0.1-0.8,0.2-1.2c0.3-1,1.1-1.6,2-1.5c1,0.1,1.7,0.9,1.8,1.9
					C283.6,297.8,283.6,298,283.6,298.2z"/>
				<path class="st8" d="M300.3,133c-0.3,4.8-0.5,9.6-0.8,14.4c-0.1,1.2-0.9,2.1-2,2.1c-1.1,0-1.9-0.9-1.9-2.1
					c0-1.6,0.1-3.2,0.2-4.8c0.1-2.4,0.3-4.8,0.4-7.1c0.1-1.1,0.1-2.1,0.2-3.2c0-0.3,0.1-0.5,0.1-0.8c0.3-0.9,1.1-1.5,2-1.4
					c0.9,0.1,1.6,0.7,1.8,1.7C300.4,132.2,300.3,132.6,300.3,133z"/>
				<path class="st8" d="M147.3,239.4c0,0.9-0.2,1.6-1,2.1c-1.3,0.7-2.7-0.1-2.9-1.7c-0.2-1.3-0.3-2.5-0.4-3.8
					c-0.2-2.1-0.4-4.3-0.6-6.4c-0.2-1.5,0.5-2.6,1.8-2.7c1.2-0.1,2,0.8,2.2,2.2c0.3,3.3,0.7,6.6,1,9.9
					C147.3,239.1,147.3,239.3,147.3,239.4z"/>
				<path class="st8" d="M156,294.1c0,0.4,0.1,0.8,0.1,1.2c-0.1,1-0.8,1.8-1.8,1.9c-1,0.1-1.9-0.6-2-1.6c-0.2-1.3-0.3-2.6-0.4-3.8
					c-0.1-0.9-0.2-1.8-0.2-2.6c-0.1-1.4,0.8-2.4,2.1-2.3c1,0.1,1.7,0.8,1.8,2C155.7,290.6,155.8,292.4,156,294.1
					C156,294.1,156,294.1,156,294.1z"/>
			</g>
		</g>
		<g>
			<g>
				<path class="st8" d="M178.4,144.5c-0.8-0.9-1.5-1.7-2.2-2.5c-3.4-4.1-5.6-8.8-6.8-14c-0.4-1.7-0.9-3.4-1.6-5
					c-0.3-0.9-1-1.7-1.5-2.6c1.5-0.6,2.9-0.4,4.3,0.2c1.3,0.6,2.3,1.5,3.3,2.6c0.7,0.8,1.3,1.7,1.9,2.6c2.3,3.8,3.9,7.8,4.4,12.2
					c0.2,1.4,0.1,2.9-0.3,4.2C179.5,143,179.1,143.7,178.4,144.5z"/>
				<path class="st8" d="M164.5,121.4c1,1,1.6,2.2,2,3.4c0.4,1.3,0.7,2.5,1,3.8c1.4,6.2,4.4,11.6,8.7,16.3c0.2,0.2,0.3,0.4,0.5,0.6
					c-1.4,0.8-2.8,0.9-4.2,0.5c-1.5-0.5-2.9-1.3-4-2.5c-3.9-4.1-6.3-9-6.8-14.7c-0.1-1.5,0.1-3.1,0.6-4.5
					C162.8,123.2,163.4,122.2,164.5,121.4z"/>
			</g>
			<g>
				<path class="st8" d="M232.4,190.2c1.1-1.5,2.4-2.8,3.9-3.8c2-1.5,4.1-3,6.2-4.4c2.3-1.6,4.6-3.3,6.4-5.6c0,0,0.1-0.1,0.2-0.1
					c0.6,1.1,0.6,2.3,0.5,3.5c0,0.4-0.1,0.8-0.2,1.2c-1.7,4.8-4.6,8.5-9.2,10.7c-1.5,0.7-3.1,1-4.8,0.5
					C234.1,191.9,233.1,191.3,232.4,190.2z"/>
				<path class="st8" d="M231.7,187.6c0-0.6,0-1.3,0.2-1.9c1.2-5.5,4.6-9.2,9.6-11.6c1.5-0.7,3-0.9,4.6-0.4c0.6,0.2,1.1,0.5,1.7,0.7
					c-0.4,0.6-0.6,1.1-1,1.4c-1.2,1.1-2.3,2.2-3.6,3.2c-1.4,1.1-2.9,2.1-4.3,3.1c-2.4,1.7-4.9,3.4-6.9,5.6
					C231.8,187.6,231.8,187.6,231.7,187.6z"/>
			</g>
			<g>
				<path class="st8" d="M232.5,312.5c0.2-0.4,0.4-0.7,0.6-1c1.2-1.4,2.4-2.8,3.6-4.2c1.2-1.3,2.5-2.6,3.7-3.9c1.1-1.2,2-2.5,3-3.8
					c1.1,1.1,1.3,2.4,1.1,3.9c-0.2,1.2-0.6,2.3-1.3,3.3c-1.6,2.4-3.6,4.2-6.2,5.4c-1.2,0.5-2.4,0.7-3.6,0.6
					C233.1,312.7,232.9,312.6,232.5,312.5z"/>
				<path class="st8" d="M230.9,311.3c-1-1.4-1-2.7-0.7-4.1c0.3-1.3,1-2.5,1.8-3.6c1.5-2.1,3.3-3.7,5.7-4.8c1-0.4,2-0.7,3.1-0.6
					c0.3,0,0.6,0.1,1,0.2c-0.3,0.5-0.5,1-0.8,1.4c-1.4,2-3.1,3.7-4.8,5.5c-1.7,1.8-3.5,3.5-4.8,5.6
					C231.2,310.9,231.1,311,230.9,311.3z"/>
			</g>
			<g>
				<path class="st8" d="M195.3,305c-1.6,0.6-3,0.8-4.6,0.8c-3.2,0-6.4-0.1-9.6-0.1c-1,0-2,0-3.2,0c0.1-0.3,0.2-0.7,0.3-1.1
					c0.5-0.9,1.3-1.6,2.2-2.1c1.4-0.7,2.8-1,4.3-1.2c2.5-0.3,5.1-0.1,7.5,0.8C193.7,302.6,194.7,303.5,195.3,305z"/>
				<path class="st8" d="M195.1,307.2c-0.2,0.9-0.7,1.4-1.3,1.8c-0.9,0.5-1.8,1-2.8,1.3c-3,0.8-6.1,0.8-9.1,0.1
					c-1.7-0.4-2.6-1.1-3.4-2.4c0.5-0.1,0.9-0.2,1.4-0.2c1.6,0,3.2,0,4.8,0C188.1,307.8,191.6,308.1,195.1,307.2z"/>
			</g>
			<g>
				<path class="st8" d="M206.4,357c1.9,1.1,3.7,1.7,5.7,1.9c1.6,0.2,3.3,0.2,4.9,0.3c1.2,0.1,2.3,0.1,3.5,0.2
					c0.4,0,0.7,0.1,1.1,0.2c-0.1,1.2-0.7,2-1.6,2.4c-0.8,0.4-1.6,0.7-2.5,0.8c-2.6,0.3-5.1,0-7.5-1.1c-1.2-0.5-2.2-1.3-3-2.4
					C206.7,358.8,206.3,358.1,206.4,357z"/>
				<path class="st8" d="M221.2,357.4c-1.5-0.1-2.7-0.1-4-0.2c-1.9-0.1-3.9-0.2-5.8-0.4c-1.5-0.2-3-0.7-4.3-1.7
					c0.6-0.8,1.5-1.2,2.4-1.3c3.4-0.6,6.5,0.1,9.5,1.7C219.9,355.9,220.5,356.5,221.2,357.4z"/>
			</g>
		</g>
	</g>
</g>
</svg>
